<svg width="25" height="26" viewBox="0 0 25 26" fill="none" xmlns="http://www.w3.org/2000/svg">
<circle cx="12.5" cy="13.2546" r="11.5" stroke="#F9F9F9" stroke-dasharray="1 1"/>
<path d="M19.6466 16.9811C19.6466 17.2211 19.5933 17.4678 19.4799 17.7078C19.3666 17.9478 19.2199 18.1745 19.0266 18.3878C18.6999 18.7478 18.3399 19.0078 17.9333 19.1745C17.5333 19.3411 17.0999 19.4278 16.6333 19.4278C15.9533 19.4278 15.2266 19.2678 14.4599 18.9411C13.6933 18.6145 12.9266 18.1745 12.1666 17.6211C11.3999 17.0611 10.6733 16.4411 9.97992 15.7545C9.29325 15.0611 8.67325 14.3345 8.11992 13.5745C7.57325 12.8145 7.13325 12.0545 6.81325 11.3011C6.49325 10.5411 6.33325 9.81448 6.33325 9.12115C6.33325 8.66782 6.41325 8.23448 6.57325 7.83448C6.73325 7.42782 6.98659 7.05448 7.33992 6.72115C7.76659 6.30115 8.23325 6.09448 8.72659 6.09448C8.91325 6.09448 9.09992 6.13448 9.26659 6.21448C9.43992 6.29448 9.59325 6.41448 9.71325 6.58782L11.2599 8.76782C11.3799 8.93448 11.4666 9.08782 11.5266 9.23448C11.5866 9.37448 11.6199 9.51448 11.6199 9.64115C11.6199 9.80115 11.5733 9.96115 11.4799 10.1145C11.3933 10.2678 11.2666 10.4278 11.1066 10.5878L10.5999 11.1145C10.5266 11.1878 10.4933 11.2745 10.4933 11.3811C10.4933 11.4345 10.4999 11.4811 10.5133 11.5345C10.5333 11.5878 10.5533 11.6278 10.5666 11.6678C10.6866 11.8878 10.8933 12.1745 11.1866 12.5211C11.4866 12.8678 11.8066 13.2211 12.1533 13.5745C12.5133 13.9278 12.8599 14.2545 13.2133 14.5545C13.5599 14.8478 13.8466 15.0478 14.0733 15.1678C14.1066 15.1811 14.1466 15.2011 14.1933 15.2211C14.2466 15.2411 14.2999 15.2478 14.3599 15.2478C14.4733 15.2478 14.5599 15.2078 14.6333 15.1345L15.1399 14.6345C15.3066 14.4678 15.4666 14.3411 15.6199 14.2611C15.7733 14.1678 15.9266 14.1211 16.0933 14.1211C16.2199 14.1211 16.3533 14.1478 16.4999 14.2078C16.6466 14.2678 16.7999 14.3545 16.9666 14.4678L19.1733 16.0345C19.3466 16.1545 19.4666 16.2945 19.5399 16.4611C19.6066 16.6278 19.6466 16.7945 19.6466 16.9811Z" stroke="#F9F9F9" stroke-miterlimit="10"/>
<path d="M17.3333 10.7611C17.3333 10.3611 17.02 9.7478 16.5533 9.2478C16.1267 8.7878 15.56 8.4278 15 8.4278" stroke="#F9F9F9" stroke-linecap="round" stroke-linejoin="round"/>
<path d="M19.6667 10.7611C19.6667 8.18109 17.58 6.09442 15 6.09442" stroke="#F9F9F9" stroke-linecap="round" stroke-linejoin="round"/>
</svg>
