<svg width="25" height="25" viewBox="0 0 25 25" fill="none" xmlns="http://www.w3.org/2000/svg">
<circle cx="12" cy="13" r="11.5" stroke="white" stroke-dasharray="1 1"/>
<path d="M8.60065 18.7335C9.60065 19.3335 10.8007 19.6668 12.0007 19.6668C15.6673 19.6668 18.6673 16.6668 18.6673 13.0002C18.6673 9.3335 15.6673 6.3335 12.0007 6.3335C8.33398 6.3335 5.33398 9.3335 5.33398 13.0002C5.33398 14.2002 5.66732 15.3335 6.20065 16.3335L5.62761 18.5375C5.4978 19.0368 5.95993 19.488 6.45598 19.3463L8.60065 18.7335Z" stroke="white" stroke-miterlimit="10" stroke-linecap="round" stroke-linejoin="round"/>
<path d="M15 14.899C15 15.007 14.976 15.118 14.9249 15.226C14.8738 15.334 14.8077 15.436 14.7206 15.532C14.5734 15.694 14.4111 15.811 14.2278 15.886C14.0476 15.961 13.8523 16 13.642 16C13.3355 16 13.008 15.928 12.6625 15.781C12.317 15.634 11.9715 15.436 11.6289 15.187C11.2834 14.935 10.9559 14.656 10.6435 14.347C10.334 14.035 10.0546 13.708 9.80521 13.366C9.55884 13.024 9.36054 12.682 9.21632 12.343C9.07211 12.001 9 11.674 9 11.362C9 11.158 9.03605 10.963 9.10816 10.783C9.18027 10.6 9.29444 10.432 9.45368 10.282C9.64597 10.093 9.85628 10 10.0786 10C10.1627 10 10.2469 10.018 10.322 10.054C10.4001 10.09 10.4692 10.144 10.5233 10.222L11.2203 11.203C11.2744 11.278 11.3135 11.347 11.3405 11.413C11.3676 11.476 11.3826 11.539 11.3826 11.596C11.3826 11.668 11.3615 11.74 11.3195 11.809C11.2804 11.878 11.2233 11.95 11.1512 12.022L10.9229 12.259C10.8898 12.292 10.8748 12.331 10.8748 12.379C10.8748 12.403 10.8778 12.424 10.8838 12.448C10.8928 12.472 10.9019 12.49 10.9079 12.508C10.9619 12.607 11.0551 12.736 11.1873 12.892C11.3225 13.048 11.4667 13.207 11.6229 13.366C11.7852 13.525 11.9414 13.672 12.1007 13.807C12.2569 13.939 12.3861 14.029 12.4882 14.083C12.5033 14.089 12.5213 14.098 12.5423 14.107C12.5663 14.116 12.5904 14.119 12.6174 14.119C12.6685 14.119 12.7076 14.101 12.7406 14.068L12.969 13.843C13.0441 13.768 13.1162 13.711 13.1853 13.675C13.2544 13.633 13.3235 13.612 13.3986 13.612C13.4557 13.612 13.5158 13.624 13.5819 13.651C13.648 13.678 13.7171 13.717 13.7922 13.768L14.7867 14.473C14.8648 14.527 14.9189 14.59 14.9519 14.665C14.982 14.74 15 14.815 15 14.899Z" stroke="white" stroke-miterlimit="10"/>
</svg>
