<svg width="25" height="25" viewBox="0 0 25 25" fill="none" xmlns="http://www.w3.org/2000/svg">
<path d="M16.7923 18.4643H8.20964C7.76761 18.4643 7.34368 18.2887 7.03112 17.9762C6.71856 17.6636 6.54297 17.2397 6.54297 16.7977V8.21501C6.54297 7.77298 6.71856 7.34906 7.03112 7.0365C7.34368 6.72393 7.76761 6.54834 8.20964 6.54834H16.7923C17.2343 6.54834 17.6583 6.72393 17.9708 7.0365C18.2834 7.34906 18.459 7.77298 18.459 8.21501V16.7977C18.459 17.2397 18.2834 17.6636 17.9708 17.9762C17.6583 18.2887 17.2343 18.4643 16.7923 18.4643ZM8.20964 7.21501C7.94442 7.21501 7.69007 7.32036 7.50253 7.5079C7.31499 7.69544 7.20964 7.94979 7.20964 8.21501V16.7977C7.20964 17.0629 7.31499 17.3172 7.50253 17.5048C7.69007 17.6923 7.94442 17.7977 8.20964 17.7977H16.7923C17.0575 17.7977 17.3119 17.6923 17.4994 17.5048C17.6869 17.3172 17.7923 17.0629 17.7923 16.7977V8.21501C17.7923 7.94979 17.6869 7.69544 17.4994 7.5079C17.3119 7.32036 17.0575 7.21501 16.7923 7.21501H8.20964Z" fill="white"/>
<path d="M12.4995 15.569C11.8937 15.5684 11.3017 15.3882 10.7984 15.0511C10.2951 14.7141 9.90294 14.2354 9.67162 13.6755C9.44029 13.1157 9.38014 12.4998 9.49877 11.9058C9.6174 11.3118 9.90948 10.7663 10.3381 10.3382C10.7667 9.91015 11.3126 9.61877 11.9068 9.50092C12.501 9.38307 13.1168 9.44402 13.6763 9.67608C14.2359 9.90813 14.714 10.3009 15.0504 10.8047C15.3868 11.3084 15.5663 11.9006 15.5661 12.5064C15.5651 13.319 15.2415 14.098 14.6665 14.6723C14.0915 15.2465 13.3121 15.569 12.4995 15.569ZM12.4995 10.1064C12.0257 10.107 11.5628 10.2481 11.1692 10.5117C10.7756 10.7753 10.4689 11.1496 10.2879 11.5874C10.1069 12.0252 10.0598 12.5068 10.1523 12.9714C10.2449 13.436 10.4731 13.8628 10.8081 14.1977C11.1431 14.5327 11.5698 14.7609 12.0344 14.8535C12.499 14.9461 12.9806 14.8989 13.4184 14.7179C13.8562 14.5369 14.2306 14.2303 14.4942 13.8366C14.7578 13.443 14.8988 12.9801 14.8995 12.5064C14.8995 11.8699 14.6466 11.2594 14.1965 10.8093C13.7464 10.3592 13.136 10.1064 12.4995 10.1064Z" fill="white"/>
<path d="M15.9667 9.77611C16.3625 9.77611 16.6833 9.45524 16.6833 9.05944C16.6833 8.66364 16.3625 8.34277 15.9667 8.34277C15.5709 8.34277 15.25 8.66364 15.25 9.05944C15.25 9.45524 15.5709 9.77611 15.9667 9.77611Z" fill="white"/>
<circle cx="12.5" cy="12.5063" r="11.5" stroke="white" stroke-dasharray="1 1"/>
</svg>
