<svg width="25" height="25" viewBox="0 0 25 25" fill="none" xmlns="http://www.w3.org/2000/svg">
<circle cx="12.5" cy="12.4934" r="11.5" stroke="#F9F9F9" stroke-dasharray="1 1"/>
<path d="M19.6468 16.22C19.6468 16.46 19.5935 16.7066 19.4802 16.9466C19.3668 17.1866 19.2202 17.4133 19.0268 17.6266C18.7002 17.9866 18.3402 18.2466 17.9335 18.4133C17.5335 18.58 17.1002 18.6666 16.6335 18.6666C15.9535 18.6666 15.2268 18.5066 14.4602 18.18C13.6935 17.8533 12.9268 17.4133 12.1668 16.86C11.4002 16.3 10.6735 15.68 9.98016 14.9933C9.2935 14.3 8.6735 13.5733 8.12016 12.8133C7.5735 12.0533 7.1335 11.2933 6.8135 10.54C6.4935 9.77998 6.3335 9.05331 6.3335 8.35998C6.3335 7.90665 6.4135 7.47331 6.5735 7.07331C6.7335 6.66665 6.98683 6.29331 7.34016 5.95998C7.76683 5.53998 8.2335 5.33331 8.72683 5.33331C8.9135 5.33331 9.10016 5.37331 9.26683 5.45331C9.44016 5.53331 9.5935 5.65331 9.7135 5.82665L11.2602 8.00665C11.3802 8.17331 11.4668 8.32665 11.5268 8.47331C11.5868 8.61331 11.6202 8.75331 11.6202 8.87998C11.6202 9.03998 11.5735 9.19998 11.4802 9.35331C11.3935 9.50665 11.2668 9.66665 11.1068 9.82665L10.6002 10.3533C10.5268 10.4266 10.4935 10.5133 10.4935 10.62C10.4935 10.6733 10.5002 10.72 10.5135 10.7733C10.5335 10.8266 10.5535 10.8666 10.5668 10.9066C10.6868 11.1266 10.8935 11.4133 11.1868 11.76C11.4868 12.1066 11.8068 12.46 12.1535 12.8133C12.5135 13.1666 12.8602 13.4933 13.2135 13.7933C13.5602 14.0866 13.8468 14.2866 14.0735 14.4066C14.1068 14.42 14.1468 14.44 14.1935 14.46C14.2468 14.48 14.3002 14.4866 14.3602 14.4866C14.4735 14.4866 14.5602 14.4466 14.6335 14.3733L15.1402 13.8733C15.3068 13.7066 15.4668 13.58 15.6202 13.5C15.7735 13.4066 15.9268 13.36 16.0935 13.36C16.2202 13.36 16.3535 13.3866 16.5002 13.4466C16.6468 13.5066 16.8002 13.5933 16.9668 13.7066L19.1735 15.2733C19.3468 15.3933 19.4668 15.5333 19.5402 15.7C19.6068 15.8666 19.6468 16.0333 19.6468 16.22Z" stroke="#F9F9F9" stroke-miterlimit="10"/>
<path d="M17.3333 9.99996C17.3333 9.59996 17.02 8.98663 16.5533 8.48663C16.1267 8.02663 15.56 7.66663 15 7.66663" stroke="#F9F9F9" stroke-linecap="round" stroke-linejoin="round"/>
<path d="M19.6667 9.99992C19.6667 7.41992 17.58 5.33325 15 5.33325" stroke="#F9F9F9" stroke-linecap="round" stroke-linejoin="round"/>
</svg>
