<svg width="25" height="24" viewBox="0 0 25 24" fill="none" xmlns="http://www.w3.org/2000/svg">
<path d="M9.66006 10.87C9.56006 10.86 9.44006 10.86 9.33006 10.87C6.95006 10.79 5.06006 8.84 5.06006 6.44C5.06006 3.99 7.04006 2 9.50006 2C11.9501 2 13.9401 3.99 13.9401 6.44C13.9301 8.84 12.0401 10.79 9.66006 10.87Z" stroke="#A4A4A4" stroke-width="1.5" stroke-linecap="round" stroke-linejoin="round"/>
<path d="M16.9098 4C18.8498 4 20.4098 5.57 20.4098 7.5C20.4098 9.39 18.9098 10.93 17.0398 11C16.9598 10.99 16.8698 10.99 16.7798 11" stroke="#A4A4A4" stroke-width="1.5" stroke-linecap="round" stroke-linejoin="round"/>
<path d="M4.66021 14.56C2.24021 16.18 2.24021 18.82 4.66021 20.43C7.41021 22.27 11.9202 22.27 14.6702 20.43C17.0902 18.81 17.0902 16.17 14.6702 14.56C11.9302 12.73 7.42021 12.73 4.66021 14.56Z" stroke="#A4A4A4" stroke-width="1.5" stroke-linecap="round" stroke-linejoin="round"/>
<path d="M18.8398 20C19.5598 19.85 20.2398 19.56 20.7998 19.13C22.3598 17.96 22.3598 16.03 20.7998 14.86C20.2498 14.44 19.5798 14.16 18.8698 14" stroke="#A4A4A4" stroke-width="1.5" stroke-linecap="round" stroke-linejoin="round"/>
</svg>
