<svg width="16" height="15" viewBox="0 0 16 15" fill="none" xmlns="http://www.w3.org/2000/svg">
<path fill-rule="evenodd" clip-rule="evenodd" d="M7.63362 0.581615L6.28141 5.19559C6.24762 5.31083 6.14304 5.38928 6.0245 5.38928H1.66861C1.32051 5.38928 1.01156 5.61597 0.903747 5.95033C0.795936 6.28469 0.913929 6.65098 1.19606 6.85765L4.72862 9.44652C4.82248 9.51523 4.86164 9.63751 4.8257 9.74896L3.47673 13.9377C3.36892 14.272 3.48691 14.6389 3.76904 14.845C4.05064 15.0517 4.43254 15.0517 4.71467 14.845L8.24723 12.2561C8.34109 12.1874 8.46876 12.1874 8.56262 12.2561L12.0952 14.845C12.3773 15.0517 12.7592 15.0517 13.0408 14.845C13.3229 14.6389 13.4409 14.272 13.3331 13.9377L11.9841 9.74896C11.9482 9.63751 11.9874 9.51523 12.0812 9.44652L15.6138 6.85765C15.8959 6.65098 16.0139 6.28469 15.9061 5.95033C15.7983 5.61597 15.4893 5.38928 15.1412 5.38928H10.7853C10.6668 5.38928 10.5622 5.31083 10.5284 5.19559L9.17622 0.581615C9.07538 0.236974 8.76161 0 8.40492 0C8.04824 0 7.73446 0.236974 7.63362 0.581615Z" fill="white"/>
</svg>
